<?xml version="1.0" standalone="no"?>
<!DOCTYPE svg PUBLIC "-//W3C//DTD SVG 20010904//EN"
 "http://www.w3.org/TR/2001/REC-SVG-20010904/DTD/svg10.dtd">
<svg version="1.0" xmlns="http://www.w3.org/2000/svg"
 width="8334.000000pt" height="8334.000000pt" viewBox="0 0 8334.000000 8334.000000"
 preserveAspectRatio="xMidYMid meet">

<g transform="translate(0.000000,8334.000000) scale(0.100000,-0.100000)"
fill="#000000" stroke="none">
<path d="M19850 73239 c-245 -3 -539 -8 -655 -9 -294 -3 -358 -10 -389 -39
-47 -44 -43 -126 7 -153 11 -5 51 -19 89 -29 104 -29 158 -60 213 -124 27 -32
85 -81 130 -110 61 -39 90 -66 118 -108 25 -38 56 -67 99 -95 70 -44 87 -61
132 -129 17 -26 51 -62 76 -80 89 -64 110 -86 142 -145 17 -32 43 -68 57 -79
72 -56 124 -119 182 -220 43 -75 78 -123 107 -147 45 -37 70 -77 92 -147 23
-76 52 -120 101 -158 58 -45 91 -105 114 -202 24 -103 48 -149 110 -207 31
-29 63 -65 71 -80 8 -15 21 -75 30 -133 21 -141 34 -175 98 -254 29 -37 60
-80 69 -97 24 -46 46 -143 62 -271 18 -141 35 -191 87 -261 84 -113 106 -201
128 -522 13 -189 25 -249 75 -378 42 -110 79 -260 97 -397 19 -149 19 -35533
0 -35678 -17 -122 -52 -253 -96 -361 -52 -124 -64 -185 -76 -366 -20 -317 -40
-403 -121 -525 -68 -101 -76 -126 -93 -267 -24 -200 -45 -261 -122 -356 -61
-75 -92 -145 -104 -237 -20 -150 -33 -179 -114 -259 -72 -69 -74 -73 -95 -156
-37 -143 -50 -171 -111 -230 -61 -58 -77 -83 -111 -175 -23 -63 -63 -114 -114
-145 -25 -16 -46 -46 -85 -127 -42 -85 -67 -121 -129 -185 -42 -44 -92 -110
-112 -147 -24 -44 -50 -76 -79 -96 -57 -40 -129 -112 -162 -163 -17 -25 -55
-59 -97 -86 -43 -28 -85 -66 -115 -104 -30 -40 -68 -73 -109 -98 -66 -40 -118
-79 -188 -143 -51 -47 -103 -73 -184 -95 -110 -29 -149 -107 -87 -177 24 -27
37 -32 107 -41 55 -7 1401 -10 4303 -9 3895 1 4227 2 4259 17 43 21 83 72 83
107 0 37 -30 63 -115 102 -60 27 -82 45 -126 98 -40 48 -73 76 -129 106 -56
31 -88 58 -126 105 -29 35 -73 75 -100 90 -27 16 -85 65 -129 110 -44 45 -98
97 -119 116 -21 19 -57 60 -80 91 -23 30 -66 76 -96 100 -43 34 -64 62 -95
124 -35 70 -48 85 -100 120 -54 36 -64 49 -107 134 -35 71 -62 108 -110 155
-55 53 -67 73 -97 151 -53 137 -69 165 -131 231 -49 51 -62 72 -79 132 -12 40
-30 102 -41 140 -15 51 -33 84 -78 139 -69 84 -86 120 -102 228 -19 123 -37
178 -75 234 -19 28 -50 73 -68 100 -42 60 -65 149 -78 300 -18 201 -36 263
-129 431 -16 30 -37 77 -45 105 -23 76 -43 251 -50 445 -7 212 -20 354 -46
520 -11 69 -24 177 -29 240 -6 69 -9 6903 -7 16915 1 9240 2 17025 2 17300 0
278 4 508 9 519 13 26 110 67 174 73 l53 6 72 -76 c40 -41 98 -91 129 -110 35
-22 73 -58 99 -94 49 -67 53 -70 134 -123 42 -27 69 -54 90 -89 29 -51 55 -73
147 -125 31 -17 57 -42 74 -71 33 -57 69 -87 146 -121 53 -25 66 -36 104 -96
39 -60 51 -72 111 -100 54 -27 79 -47 123 -101 37 -46 76 -80 122 -107 36 -22
86 -61 110 -86 23 -25 79 -76 123 -112 44 -36 125 -109 180 -162 55 -53 123
-112 150 -132 28 -20 72 -62 98 -93 27 -31 73 -70 103 -87 62 -35 101 -71 144
-133 20 -30 50 -55 91 -76 59 -32 79 -51 142 -139 21 -28 56 -58 97 -81 52
-29 72 -48 109 -105 42 -63 53 -72 123 -106 66 -31 82 -45 118 -96 34 -47 57
-68 113 -99 46 -25 87 -58 121 -97 28 -32 78 -77 110 -99 33 -22 103 -81 155
-132 53 -50 130 -117 173 -148 42 -31 100 -84 129 -117 29 -33 82 -80 119
-104 36 -24 75 -57 85 -73 32 -51 69 -84 137 -124 43 -25 74 -52 89 -76 35
-60 80 -102 142 -135 40 -22 68 -46 89 -77 49 -73 69 -91 138 -126 51 -26 72
-45 100 -86 46 -70 70 -92 136 -124 30 -15 67 -43 82 -62 61 -79 86 -104 140
-135 31 -17 83 -59 117 -93 33 -33 82 -79 110 -100 27 -22 101 -87 165 -145
63 -59 142 -128 175 -154 33 -27 81 -72 107 -101 27 -29 79 -73 116 -98 38
-25 77 -58 87 -74 32 -51 69 -84 132 -119 64 -36 88 -60 135 -137 21 -34 43
-51 92 -76 67 -33 99 -63 137 -131 17 -29 39 -48 88 -74 69 -36 98 -63 146
-134 21 -32 47 -53 107 -84 56 -29 89 -54 113 -86 19 -24 72 -71 117 -104 46
-34 112 -89 148 -124 36 -34 92 -84 124 -111 33 -26 103 -89 155 -138 53 -50
119 -105 148 -123 29 -19 68 -56 88 -83 36 -50 94 -98 153 -126 22 -11 50 -41
80 -86 39 -58 56 -74 107 -99 73 -37 98 -58 140 -124 26 -40 46 -57 101 -85
48 -25 79 -49 101 -80 67 -91 77 -101 132 -129 55 -27 80 -51 143 -133 15 -19
56 -51 90 -70 35 -20 87 -60 116 -91 28 -30 87 -83 129 -118 43 -34 119 -101
169 -149 50 -47 115 -104 145 -126 30 -22 76 -65 102 -97 29 -33 76 -72 115
-95 74 -43 91 -59 136 -129 22 -34 52 -59 105 -91 58 -35 80 -55 108 -100 43
-67 62 -85 129 -115 49 -23 61 -34 127 -126 23 -32 53 -55 100 -80 51 -26 76
-47 98 -80 46 -68 76 -96 137 -125 34 -16 80 -52 121 -94 36 -37 89 -84 116
-104 28 -19 70 -57 95 -82 25 -26 97 -91 160 -145 63 -54 135 -119 160 -145
25 -26 81 -71 126 -100 44 -29 91 -68 104 -86 42 -61 84 -100 143 -132 48 -25
68 -44 108 -103 41 -61 59 -78 111 -106 41 -21 74 -49 96 -78 57 -76 83 -100
143 -130 34 -18 71 -47 91 -72 52 -65 96 -106 134 -124 39 -19 77 -54 137
-127 21 -26 68 -65 105 -86 37 -22 85 -58 107 -81 22 -23 67 -65 100 -92 33
-28 109 -96 168 -151 60 -56 137 -122 171 -148 34 -26 83 -72 109 -102 26 -31
80 -75 122 -102 57 -35 85 -61 115 -105 31 -46 56 -69 110 -100 38 -22 78 -52
87 -66 67 -94 96 -125 153 -155 48 -25 71 -46 101 -91 39 -57 68 -81 158 -129
27 -15 58 -43 78 -74 23 -34 61 -67 114 -103 44 -30 96 -75 117 -101 20 -27
66 -68 102 -92 36 -24 103 -80 150 -124 47 -44 108 -98 135 -120 28 -22 93
-80 145 -130 52 -49 122 -108 155 -129 33 -22 82 -66 109 -98 26 -33 69 -73
95 -88 75 -46 101 -70 139 -127 26 -40 51 -63 98 -89 57 -32 82 -55 155 -146
15 -18 51 -45 80 -60 70 -36 91 -54 122 -103 31 -51 52 -69 129 -114 45 -26
73 -52 102 -94 30 -44 56 -68 107 -98 41 -24 91 -65 126 -104 32 -36 83 -82
113 -102 30 -21 98 -78 150 -128 52 -50 131 -118 175 -152 44 -33 98 -82 120
-108 21 -26 69 -67 105 -91 37 -24 80 -60 96 -80 57 -71 110 -119 161 -146 41
-22 62 -43 98 -97 39 -60 55 -74 116 -106 56 -29 77 -47 104 -88 42 -66 59
-81 136 -120 52 -26 72 -44 107 -95 33 -47 57 -69 95 -89 74 -37 103 -61 148
-120 21 -29 65 -69 97 -89 31 -20 100 -78 152 -128 52 -51 122 -110 155 -133
33 -22 91 -73 130 -113 38 -40 95 -89 126 -111 31 -21 68 -50 81 -66 14 -15
44 -49 66 -74 23 -25 61 -55 84 -68 62 -32 80 -49 125 -116 33 -49 54 -68 110
-98 43 -24 77 -50 88 -69 34 -58 89 -110 140 -133 53 -24 98 -66 133 -126 15
-24 44 -48 93 -75 58 -31 82 -53 123 -106 38 -51 64 -75 110 -99 36 -19 88
-60 126 -100 36 -38 89 -86 119 -108 29 -22 95 -80 147 -130 51 -49 128 -113
170 -142 45 -31 96 -77 119 -107 22 -30 70 -73 107 -98 41 -27 88 -71 123
-113 40 -51 71 -78 116 -102 47 -25 70 -46 100 -90 42 -62 78 -94 146 -128 29
-14 55 -40 83 -81 43 -64 57 -76 138 -121 37 -21 63 -46 86 -82 44 -67 68 -89
140 -122 39 -18 79 -49 119 -91 33 -35 85 -80 115 -100 30 -21 101 -80 156
-133 56 -54 131 -121 167 -150 35 -29 90 -79 121 -111 31 -32 84 -75 117 -95
36 -22 79 -61 107 -97 28 -36 72 -76 108 -99 35 -22 80 -62 107 -96 43 -55 88
-93 160 -138 18 -11 53 -46 78 -79 34 -43 66 -70 121 -101 60 -34 83 -54 115
-101 39 -56 54 -69 149 -126 25 -15 57 -45 72 -70 39 -64 64 -87 114 -110 25
-12 86 -60 139 -112 228 -221 365 -366 402 -423 22 -34 64 -81 92 -104 57 -45
76 -69 113 -146 16 -33 44 -68 77 -95 67 -55 71 -61 110 -138 17 -35 62 -97
99 -136 76 -82 96 -117 133 -231 27 -84 44 -108 108 -157 47 -36 81 -100 102
-192 30 -133 45 -166 105 -229 32 -33 65 -74 74 -92 8 -17 23 -86 31 -154 19
-141 43 -212 90 -269 94 -112 110 -167 140 -470 25 -250 28 -265 99 -465 65
-183 92 -523 82 -1015 -6 -333 -22 -477 -81 -725 -26 -106 -38 -185 -42 -267
l-6 -118 65 -62 c36 -35 77 -86 91 -114 27 -54 62 -88 139 -134 27 -17 59 -48
74 -72 40 -66 63 -86 134 -124 47 -25 78 -51 113 -95 30 -37 75 -77 120 -106
40 -25 108 -80 152 -122 44 -42 107 -99 140 -126 33 -27 94 -81 135 -120 41
-39 102 -90 136 -112 33 -23 80 -67 104 -98 26 -34 73 -76 114 -104 41 -27 87
-68 111 -99 25 -33 69 -72 115 -102 53 -35 87 -66 115 -106 31 -45 54 -65 105
-92 69 -36 130 -87 130 -109 0 -18 86 -103 103 -103 27 0 96 -60 136 -118 32
-47 53 -66 108 -95 40 -21 93 -61 128 -97 33 -34 95 -87 139 -118 43 -31 91
-66 106 -77 182 -134 201 -142 248 -109 12 8 36 43 53 77 17 34 55 94 84 133
81 108 102 166 130 364 19 128 40 187 97 273 68 101 100 213 113 392 14 195
44 334 96 438 75 153 99 277 114 602 10 207 54 698 75 840 59 387 59 898 0
1315 -31 220 -62 577 -80 925 -6 105 -14 216 -20 248 -10 61 -55 188 -95 267
-52 102 -85 264 -104 497 -11 135 -25 174 -101 280 -53 74 -84 176 -105 343
-18 148 -35 198 -87 256 -74 82 -108 163 -138 324 -19 100 -46 163 -105 237
-58 72 -79 121 -114 276 -26 110 -39 135 -95 180 -49 40 -73 85 -127 235 -28
78 -44 105 -94 160 -58 65 -74 93 -111 196 -12 32 -42 75 -87 124 -53 57 -81
99 -119 178 -40 84 -62 116 -110 162 -45 43 -69 77 -98 138 -33 71 -46 89
-104 134 -50 40 -74 67 -101 118 -24 45 -56 86 -99 124 -35 32 -85 88 -112
125 -105 151 -744 791 -934 937 -25 19 -72 63 -106 99 -33 36 -85 81 -116 100
-60 39 -94 72 -130 127 -13 19 -46 50 -73 67 -95 62 -112 78 -148 135 -28 45
-47 63 -94 87 -76 40 -83 46 -131 116 -34 48 -55 67 -109 96 -55 28 -78 48
-118 102 -39 54 -63 74 -117 102 -41 22 -78 50 -95 73 -50 68 -88 103 -153
142 -36 21 -87 62 -115 90 -27 28 -100 89 -161 135 -62 47 -130 107 -153 134
-23 27 -75 75 -115 106 -41 31 -97 83 -126 116 -28 32 -77 74 -108 92 -40 23
-73 54 -109 101 -28 38 -66 78 -85 89 -83 50 -109 73 -139 118 -37 59 -75 92
-133 117 -23 11 -58 39 -77 62 -70 88 -95 111 -148 138 -37 18 -73 48 -110 92
-30 36 -86 86 -125 112 -41 27 -87 68 -108 96 -21 28 -68 71 -109 98 -39 27
-101 77 -138 111 -36 35 -100 89 -141 121 -41 31 -118 98 -170 149 -52 51
-121 111 -152 133 -32 23 -58 45 -58 49 0 18 -85 103 -121 121 -49 26 -106 76
-124 109 -21 41 -71 87 -130 120 -36 21 -68 50 -96 88 -50 69 -68 84 -137 119
-40 20 -62 39 -90 82 -34 53 -58 72 -164 137 -17 11 -51 45 -75 76 -29 38 -67
72 -117 103 -41 26 -94 69 -117 97 -23 28 -75 73 -116 100 -41 28 -113 87
-161 133 -48 45 -114 101 -147 125 -33 24 -98 82 -145 130 -47 47 -107 102
-135 121 -27 19 -69 61 -93 92 -30 40 -64 70 -111 98 -55 31 -76 52 -110 103
-34 53 -53 70 -109 101 -54 29 -80 52 -119 105 -41 54 -63 74 -118 102 -67 34
-80 46 -134 124 -18 27 -52 53 -101 80 -42 23 -83 54 -98 75 -48 65 -87 102
-136 127 -27 14 -82 57 -121 97 -40 40 -116 105 -169 145 -53 40 -120 99 -149
132 -28 33 -82 80 -119 104 -44 29 -84 67 -115 109 -30 40 -68 77 -99 96 -57
34 -84 60 -143 136 -24 31 -57 60 -85 73 -65 32 -92 56 -136 121 -31 45 -54
66 -101 91 -34 18 -75 51 -93 72 -76 95 -93 110 -154 140 -51 25 -76 46 -117
97 -35 44 -68 74 -101 90 -28 14 -86 62 -134 110 -47 48 -112 104 -145 126
-32 21 -101 79 -152 128 -51 49 -112 102 -134 117 -23 15 -81 67 -128 116 -47
48 -106 99 -129 113 -27 15 -63 51 -93 92 -31 44 -65 76 -96 94 -64 37 -79 50
-126 114 -49 66 -56 72 -129 110 -44 23 -67 44 -99 91 -25 38 -58 71 -86 88
-92 54 -108 68 -153 126 -33 42 -66 71 -111 96 -44 25 -81 57 -119 103 -34 41
-78 80 -115 102 -33 19 -96 70 -140 113 -44 42 -119 105 -166 139 -47 33 -111
90 -143 126 -32 36 -86 85 -122 108 -36 24 -84 67 -109 101 -28 35 -73 75
-115 103 -48 31 -82 62 -111 104 -31 44 -62 73 -113 105 -50 31 -81 58 -101
90 -35 56 -68 85 -144 125 -43 23 -69 46 -100 91 -31 43 -55 66 -94 85 -65 33
-100 65 -143 131 -27 42 -46 59 -101 87 -45 22 -89 56 -129 98 -34 35 -99 91
-145 123 -46 32 -124 97 -174 145 -49 48 -111 103 -137 123 -26 19 -75 65
-110 102 -34 37 -89 85 -122 105 -39 25 -74 59 -101 97 -28 40 -63 73 -112
105 -39 26 -80 59 -90 74 -43 62 -87 104 -148 139 -47 28 -74 52 -97 88 -29
45 -98 107 -120 107 -25 0 -85 55 -119 109 -32 51 -48 65 -106 95 -67 34 -109
70 -152 133 -12 18 -52 49 -88 69 -36 20 -97 69 -137 108 -39 39 -116 106
-171 148 -55 43 -122 102 -148 133 -27 30 -74 73 -105 94 -31 21 -85 70 -120
109 -34 39 -89 87 -122 107 -43 26 -72 54 -101 96 -31 45 -60 72 -117 109 -54
35 -86 63 -111 102 -33 48 -53 64 -166 135 -16 10 -47 44 -68 77 -21 32 -52
65 -69 75 -103 56 -148 110 -148 176 0 61 28 205 44 230 15 23 33 38 116 98
25 18 63 60 86 92 25 38 62 75 100 101 32 22 73 60 91 85 66 90 78 102 142
144 36 23 90 70 120 104 29 34 87 84 128 112 41 28 113 86 161 130 50 46 113
93 151 112 35 17 78 48 95 67 75 84 115 116 172 137 66 25 98 52 144 118 26
38 49 54 139 100 61 30 137 78 173 108 64 55 132 97 155 97 39 0 122 51 158
96 60 76 82 91 199 131 101 34 114 42 186 108 70 64 86 74 156 95 147 43 185
61 246 117 71 66 117 87 240 114 124 27 171 49 238 113 40 38 70 58 101 66 24
6 51 13 59 15 8 3 55 9 104 14 123 14 175 34 241 92 31 27 68 55 83 63 63 33
172 57 297 65 148 10 214 29 302 88 32 21 74 46 93 55 90 40 324 78 488 78
127 0 319 38 435 86 189 79 522 112 1242 121 444 5 1074 -8 1265 -27 360 -35
372 -37 526 -89 186 -62 267 -77 474 -91 348 -23 443 -42 612 -126 125 -63
221 -90 370 -105 140 -14 232 -45 307 -104 68 -53 155 -87 287 -109 152 -27
184 -40 255 -104 81 -75 105 -87 223 -111 127 -27 177 -50 229 -107 53 -59 89
-77 217 -109 57 -15 113 -31 124 -37 12 -5 53 -42 91 -82 63 -64 77 -74 145
-95 98 -31 113 -39 188 -104 35 -30 106 -77 159 -103 97 -50 124 -72 165 -134
16 -24 47 -47 103 -75 104 -52 118 -63 160 -118 24 -32 56 -57 98 -78 75 -39
142 -88 228 -171 37 -35 95 -83 130 -107 35 -24 87 -72 116 -106 29 -35 82
-83 117 -106 44 -30 83 -68 119 -117 32 -43 75 -87 103 -105 27 -18 65 -55 84
-82 19 -28 74 -88 121 -135 47 -47 99 -103 114 -125 16 -22 69 -83 118 -136
49 -53 115 -134 146 -180 31 -46 82 -109 112 -139 41 -41 61 -70 74 -110 24
-73 42 -97 111 -146 50 -34 65 -52 100 -122 26 -52 63 -106 101 -145 63 -66
98 -125 128 -217 28 -86 41 -107 101 -151 64 -47 86 -79 115 -169 33 -99 62
-150 118 -205 41 -40 58 -67 86 -140 48 -123 62 -144 145 -211 101 -83 117
-90 141 -68 26 23 36 67 49 204 20 224 45 6001 27 6172 -10 94 -32 130 -104
172 -29 17 -83 63 -120 102 -67 71 -69 72 -182 109 -112 37 -117 40 -197 115
-82 77 -83 78 -174 99 -125 29 -170 51 -238 114 -71 68 -94 79 -211 106 -118
28 -173 56 -235 120 -53 55 -85 69 -226 97 -106 20 -150 42 -220 109 -63 60
-84 68 -234 91 -149 22 -205 44 -297 113 -96 72 -150 93 -298 116 -143 21
-184 36 -242 85 -83 70 -152 97 -294 115 -103 13 -222 38 -266 55 -26 9 -75
37 -110 62 -84 60 -165 84 -369 109 -189 24 -281 51 -390 114 -110 65 -146 74
-340 90 -309 26 -384 40 -530 102 -208 87 -272 101 -510 113 -244 12 -523 37
-635 56 -49 8 -169 35 -265 60 -328 83 -444 88 -1855 75 -1185 -11 -1179 -10
-1460 -86 -188 -51 -320 -72 -517 -85 -523 -33 -580 -43 -742 -131 -96 -52
-190 -74 -371 -88 -82 -7 -185 -16 -228 -21 -84 -10 -202 -54 -258 -96 -89
-67 -150 -86 -326 -104 -173 -16 -223 -35 -389 -148 -61 -41 -94 -50 -250 -67
-144 -16 -183 -31 -283 -111 -80 -65 -138 -88 -298 -119 -67 -13 -132 -29
-145 -35 -13 -7 -48 -36 -78 -66 -71 -69 -121 -90 -250 -104 -127 -15 -162
-30 -200 -85 -57 -82 -109 -111 -249 -135 -89 -16 -127 -38 -189 -108 -55 -64
-57 -65 -251 -122 -66 -19 -82 -29 -150 -93 -63 -60 -88 -76 -146 -96 -69 -24
-159 -78 -243 -146 -30 -24 -73 -44 -134 -62 -93 -28 -104 -36 -182 -138 -19
-25 -50 -47 -95 -67 -122 -54 -153 -73 -224 -136 -41 -35 -91 -69 -117 -78
-110 -39 -140 -57 -170 -103 -16 -25 -36 -56 -45 -68 -8 -12 -53 -40 -100 -62
-58 -28 -107 -62 -161 -111 -55 -50 -106 -85 -174 -118 -82 -41 -101 -55 -139
-106 -37 -49 -56 -64 -116 -91 -40 -19 -82 -46 -94 -62 -12 -15 -36 -48 -54
-73 -22 -30 -57 -58 -104 -85 -48 -27 -85 -58 -115 -95 -24 -30 -66 -68 -93
-85 -27 -16 -92 -70 -145 -120 -52 -49 -124 -110 -159 -135 -36 -25 -101 -80
-145 -123 -45 -43 -103 -94 -131 -112 -67 -47 -73 -51 -128 -117 -33 -40 -69
-68 -116 -93 -44 -23 -84 -55 -114 -89 -101 -117 -201 -116 -262 4 -27 54 -72
95 -130 120 -37 16 -105 75 -105 91 0 22 -61 74 -121 105 -54 27 -79 48 -120
99 -36 46 -71 77 -118 104 -36 22 -95 69 -130 106 -35 36 -95 88 -135 114 -39
27 -118 92 -175 145 -57 54 -120 108 -140 122 -20 13 -65 56 -100 95 -35 38
-91 88 -125 109 -39 25 -73 57 -95 90 -32 47 -71 82 -151 133 -19 12 -54 50
-77 83 -31 45 -57 69 -100 92 -78 42 -94 57 -135 122 -30 47 -46 60 -111 94
-66 32 -83 47 -120 99 -34 50 -56 69 -116 102 -54 30 -85 55 -115 95 -23 31
-71 75 -108 100 -37 25 -100 77 -140 115 -40 39 -111 99 -157 135 -46 36 -109
91 -140 124 -31 32 -91 83 -134 113 -43 30 -85 66 -95 80 -41 59 -80 98 -140
138 -39 26 -80 66 -107 103 -31 42 -61 69 -102 92 -73 42 -100 66 -124 111
-22 44 -65 82 -122 107 -48 21 -72 45 -119 117 -26 39 -47 57 -94 80 -75 36
-96 55 -141 122 -27 41 -48 59 -100 85 -46 23 -83 52 -122 96 -31 34 -85 82
-120 105 -36 23 -108 82 -160 131 -53 49 -130 117 -171 151 -41 35 -90 81
-108 104 -19 23 -52 54 -75 68 -78 51 -118 86 -158 139 -24 33 -67 72 -111
101 -52 34 -84 65 -113 108 -33 48 -54 67 -114 100 -57 31 -82 53 -108 91 -48
72 -71 93 -128 118 -49 22 -85 57 -137 134 -19 29 -45 49 -90 70 -49 24 -74
45 -113 94 -33 41 -80 83 -135 120 -46 31 -98 73 -114 93 -16 20 -74 70 -130
112 -56 42 -126 99 -156 127 -97 91 -118 103 -265 145 l-140 41 -2370 -2
c-1303 -1 -2570 -5 -2815 -9z"/>
<path d="M55845 73240 c-115 -4 -300 -9 -410 -10 -110 -1 -221 -7 -247 -12
-90 -18 -140 -115 -85 -165 12 -12 56 -37 98 -57 42 -20 83 -46 92 -59 28 -43
77 -86 140 -123 33 -19 105 -77 159 -127 194 -181 365 -353 391 -392 15 -22
54 -65 88 -94 49 -43 70 -71 96 -128 27 -58 43 -80 75 -101 71 -46 113 -95
136 -160 22 -59 40 -82 116 -151 44 -40 73 -95 111 -211 25 -75 35 -92 85
-140 77 -75 84 -88 120 -218 37 -137 48 -161 110 -226 64 -68 79 -101 91 -198
23 -187 36 -219 125 -320 59 -66 87 -167 104 -378 13 -160 20 -183 90 -316 32
-61 65 -135 74 -165 25 -83 44 -255 51 -454 8 -228 20 -358 53 -565 l27 -165
1 -17050 c1 -9377 -2 -17174 -6 -17325 -4 -151 -13 -291 -19 -311 -24 -78 -94
-129 -176 -129 -42 0 -51 4 -93 48 -26 26 -78 73 -117 104 -38 31 -96 83 -128
116 -32 33 -79 73 -105 88 -63 36 -78 50 -118 109 -18 28 -50 61 -71 74 -94
60 -110 74 -149 128 -33 47 -55 66 -123 103 -72 40 -87 52 -121 108 -35 55
-48 66 -103 91 -60 27 -92 56 -161 146 -18 23 -50 47 -85 63 -37 17 -81 51
-131 101 -41 42 -104 96 -140 121 -36 24 -108 86 -160 136 -52 50 -117 107
-144 128 -27 20 -74 63 -104 96 -30 33 -84 80 -120 103 -43 28 -80 62 -102 93
-34 51 -53 67 -145 127 -27 17 -59 48 -72 67 -43 68 -76 100 -136 132 -46 24
-70 46 -93 80 -47 72 -63 87 -136 124 -53 27 -79 48 -119 99 -36 47 -67 74
-110 97 -39 20 -81 55 -117 95 -30 36 -94 91 -141 124 -47 33 -122 94 -166
136 -44 42 -106 95 -138 119 -31 23 -92 78 -135 121 -42 43 -98 93 -124 110
-25 17 -64 56 -87 86 -22 30 -61 68 -87 83 -48 29 -97 76 -168 159 -21 25 -65
59 -97 77 -43 22 -68 45 -93 82 -42 64 -64 84 -134 121 -35 19 -69 47 -89 75
-53 72 -84 101 -128 120 -51 22 -102 66 -139 119 -17 24 -59 59 -101 86 -41
25 -91 67 -113 93 -22 26 -58 61 -81 77 -154 113 -197 147 -286 231 -55 52
-140 134 -190 183 -49 49 -109 101 -132 115 -24 14 -65 55 -93 90 -35 45 -71
76 -120 106 -57 33 -79 54 -113 106 -35 53 -52 70 -107 98 -70 37 -103 68
-143 132 -18 30 -44 50 -97 78 -50 26 -80 50 -100 79 -56 81 -69 93 -135 127
-49 25 -80 50 -110 88 -23 29 -78 78 -121 109 -43 30 -110 86 -149 123 -38 37
-108 96 -155 130 -47 34 -119 97 -160 139 -41 42 -96 91 -121 107 -25 17 -65
57 -90 89 -30 39 -66 71 -114 99 -56 34 -79 55 -113 107 -35 53 -55 71 -115
105 -53 30 -81 54 -105 90 -49 72 -61 83 -122 114 -59 30 -90 59 -138 131 -24
35 -46 53 -95 77 -41 19 -76 45 -94 68 -64 83 -89 106 -154 145 -38 22 -87 62
-111 90 -24 27 -86 80 -138 117 -52 36 -126 98 -164 137 -38 38 -98 93 -132
121 -35 27 -89 78 -119 112 -31 33 -82 77 -113 96 -63 38 -97 72 -130 127 -21
35 -51 59 -135 109 -21 12 -53 47 -74 78 -42 66 -49 73 -123 111 -58 31 -88
60 -134 128 -20 29 -46 51 -83 69 -62 31 -95 60 -140 126 -23 34 -49 55 -102
83 -50 26 -87 56 -123 97 -28 33 -83 81 -122 108 -39 26 -118 91 -175 144 -56
53 -126 114 -155 135 -28 21 -68 59 -90 85 -21 26 -77 73 -125 106 -65 43 -97
72 -121 111 -24 37 -54 65 -105 97 -76 50 -77 51 -134 132 -29 41 -55 63 -103
89 -48 26 -75 49 -113 100 -38 49 -66 74 -110 98 -56 30 -87 58 -143 132 -13
17 -55 49 -93 72 -48 28 -84 59 -115 98 -26 34 -67 70 -101 91 -32 19 -94 69
-138 110 -44 42 -116 102 -160 134 -78 57 -216 182 -380 346 -44 44 -107 97
-141 119 -41 26 -75 59 -104 101 -33 46 -61 71 -113 102 -51 31 -78 55 -108
99 -42 62 -53 72 -138 122 -33 19 -73 55 -100 91 -34 44 -65 69 -120 100 -57
32 -82 53 -108 93 -19 28 -54 64 -76 79 -23 15 -58 38 -77 50 -19 13 -53 47
-75 76 -22 29 -70 72 -105 96 -36 23 -99 76 -140 116 -41 41 -119 106 -172
145 -53 39 -120 98 -148 130 -29 33 -80 79 -115 103 -34 24 -86 71 -114 105
-29 35 -78 78 -111 98 -61 37 -101 76 -139 138 -14 22 -51 54 -96 82 -52 33
-83 60 -104 94 -38 59 -52 72 -119 106 -59 31 -95 63 -134 123 -19 29 -49 53
-102 82 -61 34 -83 52 -113 98 -21 31 -53 66 -71 77 -101 61 -130 85 -170 138
-26 34 -61 66 -85 79 -66 33 -135 86 -232 178 -49 47 -114 103 -143 124 -29
21 -73 63 -98 94 -25 31 -78 78 -117 105 -46 31 -87 70 -114 107 -31 44 -60
69 -113 100 -54 32 -79 54 -104 93 -42 64 -63 84 -134 122 -43 23 -67 46 -102
95 -37 53 -56 70 -108 96 -73 36 -103 62 -140 122 -19 31 -43 52 -84 73 -68
35 -115 74 -153 129 -16 23 -55 57 -89 77 -34 21 -102 76 -152 123 -50 48
-126 113 -170 145 -43 32 -92 72 -108 89 -15 17 -45 48 -64 69 -20 21 -50 46
-67 54 -55 29 -84 56 -126 116 -29 40 -62 72 -108 101 -61 40 -121 96 -121
115 0 17 -74 83 -116 102 -41 20 -68 46 -140 136 -17 21 -57 51 -88 67 -56 29
-70 42 -126 123 -20 29 -50 53 -100 79 -48 25 -79 49 -98 76 -53 77 -72 96
-129 124 -36 18 -87 57 -133 104 -41 42 -109 98 -150 125 -41 27 -112 86 -157
131 -44 45 -105 100 -135 122 -29 22 -82 71 -117 110 -34 39 -86 85 -115 102
-37 21 -69 52 -106 100 -37 51 -68 80 -107 102 -29 17 -68 48 -86 70 -68 86
-94 110 -157 146 -47 27 -74 51 -97 87 -37 57 -66 83 -138 124 -31 18 -62 46
-79 72 -45 69 -67 89 -139 125 -37 19 -78 47 -90 61 -66 79 -104 115 -150 141
-29 16 -92 67 -142 114 -49 46 -129 112 -177 147 -47 34 -93 72 -101 84 -28
42 -106 116 -151 142 -25 15 -69 56 -98 92 -32 41 -77 82 -118 108 -44 28 -78
60 -104 98 -37 54 -60 74 -154 131 -24 15 -55 47 -72 74 -32 53 -61 77 -137
115 -51 26 -85 60 -115 115 -9 17 -27 37 -40 45 -12 7 -48 29 -79 47 -42 24
-67 49 -97 94 -34 52 -52 68 -113 101 -54 30 -84 55 -118 98 -25 32 -74 78
-108 103 -35 25 -82 71 -105 102 -23 31 -56 68 -73 81 -56 46 -130 126 -154
169 -14 23 -50 61 -80 85 -43 33 -66 62 -101 126 -31 58 -58 94 -88 116 -54
42 -71 64 -111 144 -18 35 -61 94 -96 131 -71 76 -103 132 -134 237 -20 65
-29 79 -95 145 -78 78 -73 67 -135 284 -18 60 -29 80 -81 133 -67 70 -89 125
-110 279 -16 121 -32 164 -93 255 -77 115 -102 195 -121 397 -33 343 -34 346
-92 519 -80 239 -86 290 -91 816 -5 482 3 598 52 781 41 152 63 273 70 395 8
135 6 141 -71 212 -30 28 -68 76 -86 110 -29 54 -42 68 -102 104 -69 40 -95
67 -127 128 -9 17 -40 44 -70 62 -102 60 -113 68 -159 128 -32 41 -65 70 -106
93 -33 18 -87 62 -124 101 -36 38 -101 95 -145 127 -44 32 -121 97 -171 144
-50 48 -111 101 -136 118 -25 17 -72 61 -105 96 -32 36 -86 84 -119 108 -34
24 -81 68 -105 98 -25 30 -77 77 -117 104 -51 34 -83 64 -107 101 -27 43 -50
63 -117 102 -52 31 -91 61 -105 83 -45 71 -67 92 -134 125 -37 19 -76 46 -86
60 -71 100 -88 117 -143 145 -37 19 -76 50 -107 85 -27 32 -92 86 -148 124
-55 37 -144 97 -199 134 -61 41 -109 67 -125 67 -34 0 -70 -37 -105 -107 -14
-28 -30 -54 -36 -58 -6 -4 -33 -33 -60 -66 -60 -72 -83 -140 -110 -327 -23
-156 -46 -224 -96 -295 -77 -107 -107 -214 -123 -442 -12 -170 -41 -304 -86
-406 -46 -100 -83 -200 -94 -252 -6 -23 -15 -154 -21 -292 -10 -253 -23 -429
-40 -565 -5 -41 -14 -127 -20 -190 -6 -63 -18 -153 -27 -200 -12 -65 -17 -185
-20 -515 -5 -396 -3 -444 17 -610 53 -447 70 -625 80 -844 18 -402 37 -505
124 -681 62 -125 80 -210 106 -510 12 -136 31 -192 94 -281 71 -98 95 -173
116 -369 16 -149 24 -172 80 -237 70 -80 105 -159 131 -288 25 -129 60 -208
127 -288 53 -62 67 -99 103 -272 12 -55 26 -109 31 -120 6 -11 37 -44 69 -72
50 -46 61 -64 88 -138 44 -122 73 -175 136 -246 30 -35 62 -84 71 -109 43
-120 58 -149 105 -200 64 -70 96 -117 144 -210 23 -45 64 -103 104 -145 45
-48 72 -86 84 -121 24 -67 56 -110 109 -145 52 -35 70 -56 110 -134 17 -33 63
-94 103 -135 39 -41 88 -97 109 -125 83 -112 671 -706 856 -865 41 -35 111
-98 155 -140 44 -41 105 -92 135 -112 30 -20 83 -67 116 -104 40 -45 83 -81
125 -104 52 -29 72 -47 109 -104 35 -53 56 -74 95 -93 64 -32 88 -54 137 -126
32 -47 51 -63 107 -91 64 -33 89 -55 153 -139 16 -20 55 -50 88 -68 42 -22 75
-51 112 -97 34 -43 74 -78 113 -101 33 -20 98 -72 145 -116 47 -44 110 -101
140 -127 30 -26 91 -81 135 -122 44 -42 109 -97 145 -123 36 -25 86 -71 111
-102 28 -35 73 -72 115 -97 52 -31 80 -56 114 -105 35 -49 61 -72 111 -100 40
-23 76 -52 96 -80 65 -90 87 -111 144 -140 45 -22 67 -42 97 -86 51 -74 74
-95 145 -128 39 -18 66 -39 86 -68 45 -65 78 -95 136 -128 30 -17 74 -54 97
-82 51 -61 57 -67 125 -112 29 -19 88 -67 130 -108 43 -40 110 -99 148 -132
39 -33 106 -94 150 -136 44 -41 105 -91 136 -111 31 -20 73 -58 94 -84 50 -64
80 -90 136 -119 46 -24 81 -59 131 -132 17 -25 51 -52 97 -77 49 -27 78 -51
97 -80 43 -67 75 -96 144 -131 53 -27 73 -44 103 -89 20 -31 56 -68 80 -83
100 -63 116 -76 153 -128 25 -34 62 -68 104 -94 68 -42 98 -67 140 -117 14
-16 54 -52 90 -79 36 -27 108 -91 160 -140 52 -50 129 -116 170 -147 41 -31
97 -82 124 -113 27 -31 79 -76 116 -100 37 -24 80 -61 96 -82 50 -68 78 -94
138 -126 40 -21 70 -47 90 -76 56 -80 76 -99 141 -136 50 -27 73 -48 99 -88
34 -55 88 -107 110 -107 27 0 99 -59 135 -111 28 -41 56 -65 115 -100 53 -31
90 -62 117 -96 21 -28 73 -75 116 -105 43 -31 95 -76 116 -101 20 -25 84 -82
142 -127 58 -44 133 -110 167 -146 35 -36 93 -86 130 -111 37 -25 87 -72 112
-104 30 -39 64 -68 98 -86 60 -32 109 -78 155 -145 23 -34 49 -56 91 -77 59
-30 70 -40 135 -131 23 -32 53 -56 102 -82 52 -27 78 -48 101 -83 49 -71 74
-94 139 -125 45 -22 72 -44 110 -91 33 -41 73 -77 118 -104 39 -23 93 -69 124
-104 31 -35 72 -73 92 -86 20 -12 89 -72 154 -133 64 -61 144 -129 176 -151
32 -22 85 -70 116 -106 36 -41 84 -81 124 -105 50 -29 78 -54 113 -103 36 -51
63 -75 117 -107 54 -31 79 -53 104 -93 40 -62 78 -96 142 -127 29 -14 58 -39
75 -64 56 -81 73 -97 124 -122 64 -33 90 -56 130 -119 26 -39 48 -59 106 -90
49 -27 91 -60 129 -103 31 -34 81 -79 111 -99 30 -20 93 -73 140 -117 47 -45
112 -104 145 -131 33 -27 96 -83 140 -125 44 -42 105 -93 137 -113 31 -19 78
-62 105 -95 26 -33 73 -75 103 -93 57 -36 87 -64 159 -149 24 -28 68 -65 98
-82 33 -19 69 -50 92 -82 48 -65 63 -77 136 -118 40 -23 74 -52 104 -92 43
-56 76 -84 160 -135 23 -14 56 -48 76 -77 26 -40 52 -63 107 -95 40 -23 102
-72 138 -108 36 -37 93 -87 125 -113 33 -25 108 -91 166 -145 59 -55 129 -116
156 -136 27 -19 72 -62 100 -94 28 -32 69 -69 93 -83 65 -39 99 -69 142 -127
24 -34 65 -70 108 -98 43 -28 80 -61 101 -92 43 -62 70 -87 123 -112 47 -21
76 -49 129 -121 20 -27 56 -57 92 -78 62 -34 100 -71 147 -140 19 -28 44 -48
90 -70 69 -33 86 -47 143 -116 20 -25 63 -62 95 -81 32 -19 90 -66 129 -105
39 -38 122 -112 185 -164 63 -52 126 -111 141 -130 15 -19 57 -56 95 -81 37
-26 95 -78 129 -116 34 -38 83 -81 109 -96 61 -34 97 -68 127 -118 23 -39 52
-64 139 -115 21 -13 53 -46 71 -74 43 -66 67 -88 138 -121 46 -21 65 -38 87
-74 46 -74 72 -103 107 -117 55 -24 109 -79 123 -128 10 -36 9 -58 -5 -127
-29 -148 -39 -165 -154 -241 -24 -16 -60 -57 -86 -98 -34 -53 -55 -75 -92 -94
-64 -33 -82 -50 -132 -119 -28 -38 -66 -73 -109 -101 -37 -24 -93 -74 -126
-110 -34 -40 -92 -90 -140 -121 -44 -29 -119 -87 -165 -130 -52 -47 -107 -88
-145 -106 -75 -34 -86 -43 -118 -94 -34 -54 -46 -63 -141 -110 -68 -34 -89
-50 -127 -100 -40 -53 -58 -66 -154 -115 -65 -33 -134 -77 -170 -109 -56 -50
-144 -101 -174 -101 -32 0 -95 -45 -147 -104 -61 -69 -86 -83 -214 -121 -95
-28 -134 -51 -171 -101 -40 -54 -91 -83 -200 -115 -128 -37 -151 -49 -213
-111 -63 -63 -103 -81 -246 -108 -137 -26 -156 -35 -210 -98 -55 -66 -109 -88
-252 -103 -148 -15 -204 -36 -300 -108 -109 -83 -164 -101 -329 -112 -171 -11
-237 -32 -357 -112 -107 -72 -235 -99 -518 -112 -157 -6 -284 -31 -490 -96
-169 -52 -195 -58 -350 -75 -158 -18 -1037 -36 -1380 -29 -537 11 -677 17
-819 31 -180 18 -237 30 -465 94 -184 52 -248 62 -521 80 -195 13 -338 33
-400 55 -25 9 -81 38 -126 65 -93 57 -187 84 -354 100 -177 17 -273 48 -344
110 -52 46 -135 79 -264 105 -168 35 -185 41 -242 88 -123 102 -129 105 -187
116 -202 39 -256 61 -315 130 -41 47 -74 65 -186 97 -118 34 -156 56 -227 128
-54 55 -69 64 -148 91 -68 22 -102 41 -152 82 -79 65 -150 110 -237 152 -51
24 -75 43 -98 76 -38 55 -76 84 -162 124 -50 24 -80 47 -119 92 -31 36 -72 70
-103 86 -79 40 -135 81 -214 157 -40 38 -100 88 -134 110 -34 23 -89 73 -121
111 -32 39 -86 89 -120 111 -40 27 -77 63 -104 102 -44 62 -91 108 -140 137
-16 9 -53 50 -82 90 -29 40 -75 89 -102 109 -27 20 -81 80 -121 134 -39 53
-99 126 -132 162 -70 75 -93 106 -126 173 -15 30 -51 72 -91 108 -49 43 -72
73 -88 111 -38 91 -45 101 -106 145 -68 51 -76 61 -120 152 -18 36 -51 84 -74
106 -62 59 -111 139 -136 219 -32 103 -49 131 -108 175 -64 49 -86 86 -126
218 -30 97 -34 105 -99 170 -54 54 -72 81 -91 133 -33 91 -76 164 -120 202
-21 18 -61 66 -90 106 -78 107 -104 98 -126 -45 -12 -74 -15 -596 -17 -3193
-2 -1708 1 -3140 5 -3182 10 -94 31 -129 109 -180 31 -21 71 -58 87 -82 42
-61 70 -78 191 -121 115 -40 161 -66 203 -120 44 -55 93 -81 202 -105 122 -27
140 -36 217 -107 69 -64 112 -84 223 -108 105 -23 148 -46 215 -115 62 -64 77
-70 230 -96 121 -21 169 -42 222 -97 24 -24 54 -51 68 -60 14 -8 95 -29 180
-47 169 -35 228 -59 299 -122 70 -62 137 -89 265 -105 141 -18 222 -44 283
-92 92 -74 161 -97 363 -126 150 -21 193 -36 291 -101 105 -70 178 -91 376
-109 230 -21 323 -48 423 -120 61 -44 151 -70 295 -84 365 -37 437 -52 575
-121 143 -71 208 -81 720 -110 107 -6 231 -15 275 -21 89 -10 316 -49 326 -55
17 -10 300 -65 419 -80 121 -16 244 -18 1195 -19 1322 -2 1359 0 1685 80 271
67 513 97 864 110 217 8 288 24 441 100 134 66 189 80 375 100 336 35 349 39
490 125 103 62 147 75 321 95 184 21 251 45 374 135 50 37 138 65 230 74 162
16 245 47 340 127 69 58 114 76 265 105 72 14 141 29 153 34 12 5 50 36 85 68
71 69 106 83 256 107 120 19 137 28 203 98 64 70 90 83 230 117 119 30 148 46
195 109 39 53 59 65 179 102 137 42 154 51 219 119 46 48 69 62 141 89 86 32
163 78 252 149 31 25 75 47 125 62 99 31 114 41 169 112 40 53 57 65 149 109
71 34 124 68 171 110 65 58 129 99 154 99 6 0 38 12 70 26 46 21 65 37 89 73
41 65 63 83 155 130 51 26 108 66 156 110 50 46 106 85 167 116 71 36 99 57
121 89 42 60 68 81 142 114 37 17 75 42 85 57 66 94 84 112 144 146 39 22 78
54 98 80 54 71 84 99 139 130 29 17 81 61 115 98 35 38 98 91 140 119 42 29
116 89 165 135 48 46 114 100 145 120 32 20 68 49 80 64 69 83 113 122 165
147 31 16 80 50 107 76 63 59 126 93 157 85 34 -9 51 -24 87 -76 42 -62 81
-94 140 -113 52 -18 84 -47 124 -111 32 -50 45 -62 126 -105 49 -26 78 -51
112 -95 32 -41 65 -70 106 -93 32 -17 84 -58 114 -90 30 -32 89 -85 130 -117
41 -32 122 -102 180 -155 58 -53 127 -113 154 -133 27 -21 73 -64 102 -96 29
-32 82 -77 117 -100 37 -24 83 -66 109 -99 25 -32 67 -72 94 -90 85 -54 94
-62 131 -118 31 -47 114 -114 141 -114 16 0 71 -59 90 -96 26 -51 42 -64 129
-108 61 -30 78 -45 112 -95 32 -47 54 -66 108 -96 37 -20 105 -71 149 -113 78
-74 220 -203 442 -404 56 -51 133 -115 170 -143 36 -27 105 -88 152 -135 47
-47 107 -98 135 -115 31 -19 65 -52 91 -89 30 -44 58 -69 107 -98 65 -38 81
-53 137 -135 21 -30 47 -50 93 -72 71 -34 90 -51 139 -126 25 -37 49 -59 98
-85 42 -23 75 -50 97 -80 65 -91 75 -99 130 -126 35 -16 92 -59 144 -108 210
-196 289 -267 369 -330 47 -38 117 -99 155 -137 39 -38 99 -88 135 -111 37
-25 83 -68 110 -103 31 -40 69 -74 116 -103 54 -33 78 -56 112 -107 37 -56 52
-70 113 -100 56 -29 76 -45 99 -83 50 -82 71 -102 134 -131 64 -29 82 -46 128
-125 22 -36 41 -52 95 -80 68 -34 95 -58 146 -128 15 -21 53 -51 87 -69 33
-18 101 -69 150 -115 49 -45 116 -104 147 -130 32 -27 86 -74 120 -106 94 -86
134 -106 275 -133 233 -45 325 -46 3121 -38 1442 4 2744 6 2892 4 298 -4 342
2 373 47 57 82 22 154 -88 177 -67 14 -136 53 -209 119 -41 36 -109 86 -152
111 -57 33 -90 60 -118 98 -45 61 -77 90 -146 136 -32 21 -66 56 -93 97 -28
43 -60 76 -95 98 -61 40 -98 78 -122 126 -10 19 -56 73 -104 120 -73 72 -95
103 -146 199 -47 90 -67 119 -101 142 -43 29 -72 78 -109 184 -13 36 -35 66
-80 110 -72 68 -97 113 -120 211 -24 103 -56 166 -109 209 -58 50 -81 99 -102
222 -19 115 -50 184 -116 259 -55 63 -78 126 -102 284 -38 241 -41 251 -102
327 -68 83 -96 191 -114 433 -22 293 -39 389 -95 530 -42 107 -65 198 -83 330
-15 115 -16 1467 -20 17710 -2 12530 0 17636 8 17763 14 233 30 319 95 514 66
197 71 225 90 480 23 306 42 383 118 490 54 75 73 127 87 238 15 123 45 256
67 298 9 18 36 55 61 82 61 67 87 130 106 253 19 121 40 168 100 218 58 49 80
90 110 213 30 121 52 160 111 201 51 35 77 70 95 125 24 76 59 132 107 173 37
30 63 68 106 149 46 86 73 122 131 178 41 40 89 98 110 136 30 52 52 75 106
112 51 35 80 65 112 113 32 51 59 77 112 113 49 32 83 64 112 106 32 48 56 69
115 102 41 23 109 73 152 110 91 79 119 95 207 123 103 31 138 77 106 139 -34
64 -22 62 -508 72 -1329 25 -1944 29 -4493 27 -1512 -1 -2844 -5 -2960 -8z"/>
<path d="M37295 24580 c-635 -71 -1096 -315 -1375 -729 -85 -127 -158 -307
-197 -491 -26 -121 -25 -493 0 -630 24 -126 78 -286 129 -382 86 -161 252
-349 417 -474 163 -123 536 -290 1031 -464 239 -84 509 -189 595 -232 154 -78
310 -216 357 -318 91 -195 49 -445 -98 -579 -103 -94 -224 -135 -399 -134
-200 2 -340 58 -470 188 -113 112 -173 236 -200 413 l-7 42 -685 0 -685 0 6
-37 c3 -21 8 -63 11 -93 19 -166 87 -394 163 -545 218 -436 661 -759 1234
-899 223 -54 369 -70 678 -70 292 -1 365 5 565 45 236 48 510 165 695 296 359
256 582 654 608 1084 25 404 -57 729 -248 989 -81 111 -252 279 -365 359 -161
114 -505 269 -920 416 -276 98 -516 191 -631 245 -326 153 -464 352 -426 613
36 253 217 391 507 390 179 -1 306 -51 415 -162 94 -96 143 -197 184 -383 l6
-28 696 0 695 0 -5 33 c-3 17 -10 66 -17 107 -82 548 -391 973 -884 1216 -205
100 -417 163 -675 199 -134 19 -583 28 -705 15z"/>
<path d="M58995 24575 c-608 -70 -1138 -316 -1559 -725 -433 -421 -689 -932
-783 -1565 -25 -173 -25 -659 0 -830 97 -643 354 -1158 788 -1580 491 -477
1145 -734 1864 -735 459 0 837 86 1230 280 268 132 479 283 685 490 590 592
862 1435 754 2340 -116 978 -726 1788 -1614 2145 -198 80 -385 129 -625 166
-171 27 -566 34 -740 14z m596 -1201 c681 -116 1099 -688 1099 -1504 0 -559
-193 -1003 -555 -1278 -166 -126 -409 -216 -651 -243 -136 -15 -355 -6 -484
20 -550 109 -933 525 -1034 1124 -71 413 -15 891 139 1197 123 245 328 452
564 570 129 64 335 118 511 134 83 7 317 -4 411 -20z"/>
<path d="M15080 21850 l0 -2660 640 0 640 0 2 1630 3 1630 1074 -1630 1075
-1630 643 0 643 0 0 2660 0 2660 -645 0 -645 0 -2 -1643 -3 -1643 -1071 1641
-1071 1640 -642 3 -641 2 0 -2660z"/>
<path d="M20690 21850 l0 -2660 1650 0 1650 0 0 515 0 515 -1010 0 -1010 0 0
590 0 590 900 0 900 0 0 485 0 485 -900 0 -900 0 0 560 0 560 1010 0 1010 0 0
510 0 510 -1650 0 -1650 0 0 -2660z"/>
<path d="M24414 24418 c215 -313 1678 -2472 1682 -2482 3 -7 -376 -625 -841
-1374 -465 -749 -845 -1364 -845 -1367 0 -3 330 -5 733 -5 l734 0 479 825
c263 453 481 825 484 825 3 0 257 -371 564 -825 l559 -825 763 0 763 0 -233
343 c-127 188 -530 782 -895 1320 l-663 977 23 38 c13 20 389 621 836 1335
447 714 813 1300 813 1303 0 2 -329 3 -731 2 l-732 -3 -462 -789 c-255 -433
-467 -792 -472 -796 -4 -5 -253 351 -552 791 l-544 799 -764 0 -763 0 64 -92z"/>
<path d="M29640 24000 l0 -510 715 0 715 0 0 -2150 0 -2150 645 0 645 0 0
2150 0 2150 725 0 725 0 0 510 0 510 -2085 0 -2085 0 0 -510z"/>
<path d="M40040 24000 l0 -510 715 0 715 0 0 -2150 0 -2150 645 0 645 0 0
2150 0 2150 725 0 725 0 0 510 0 510 -2085 0 -2085 0 0 -510z"/>
<path d="M49900 24000 l0 -510 715 0 715 0 0 -2150 0 -2150 645 0 645 0 0
2150 0 2150 725 0 725 0 0 510 0 510 -2085 0 -2085 0 0 -510z"/>
<path d="M54620 21850 l0 -2660 640 0 640 0 0 2660 0 2660 -640 0 -640 0 0
-2660z"/>
<path d="M62730 21850 l0 -2660 640 0 640 0 2 1630 3 1630 1074 -1630 1075
-1630 643 0 643 0 0 2660 0 2660 -645 0 -645 0 -2 -1643 -3 -1643 -1071 1641
-1071 1640 -642 3 -641 2 0 -2660z"/>
<path d="M46311 24448 c-5 -13 -438 -1188 -964 -2613 -526 -1424 -960 -2602
-966 -2617 l-11 -28 678 0 677 0 165 485 164 485 999 -2 999 -3 164 -479 c90
-264 165 -481 167 -483 2 -2 310 -2 684 -1 l681 3 -973 2635 -972 2635 -742 3
-741 2 -9 -22z m1079 -2335 l328 -968 -661 -3 c-363 -1 -662 0 -664 2 -2 2
145 441 328 975 183 534 334 969 337 967 2 -3 152 -440 332 -973z"/>
<path d="M29520 17708 c-50 -26 -90 -89 -90 -143 0 -17 10 -51 23 -75 30 -60
82 -90 160 -90 69 0 112 17 152 59 24 26 30 41 33 94 3 52 0 67 -20 96 -39 57
-69 73 -145 78 -57 4 -75 1 -113 -19z"/>
<path d="M45590 17708 c-50 -26 -90 -89 -90 -143 0 -17 10 -51 23 -75 30 -60
82 -90 160 -90 69 0 112 17 152 59 24 26 30 41 33 94 3 52 0 67 -20 96 -39 57
-69 73 -145 78 -57 4 -75 1 -113 -19z"/>
<path d="M59442 17699 c-274 -46 -416 -212 -429 -501 l-6 -118 -118 0 -119 0
0 -120 0 -120 120 0 120 0 0 -705 0 -705 135 0 135 0 0 705 0 705 195 0 195 0
0 120 0 120 -195 0 -195 0 0 63 c0 78 23 170 55 219 42 63 158 108 280 108
l55 0 0 120 0 120 -87 -1 c-49 -1 -112 -5 -141 -10z"/>
<path d="M37290 16540 l0 -1110 135 0 135 0 0 1110 0 1110 -135 0 -135 0 0
-1110z"/>
<path d="M54180 16540 l0 -1110 135 0 135 0 0 1110 0 1110 -135 0 -135 0 0
-1110z"/>
<path d="M15200 16490 l0 -1060 135 0 135 0 0 1060 0 1060 -135 0 -135 0 0
-1060z"/>
<path d="M39340 16490 l0 -1062 438 5 c390 4 447 7 532 25 527 112 810 473
810 1031 0 229 -37 391 -126 561 -112 213 -314 371 -565 443 -160 46 -208 50
-656 55 l-433 4 0 -1062z m843 805 c354 -53 572 -250 642 -581 21 -97 24 -309
6 -414 -57 -326 -261 -533 -592 -600 -82 -17 -137 -20 -363 -20 l-266 0 0 815
0 815 238 0 c157 0 270 -5 335 -15z"/>
<path d="M52160 16490 l0 -1060 135 0 135 0 0 425 0 425 188 0 c352 1 505 24
644 97 131 69 238 208 274 359 22 90 22 266 0 356 -39 166 -144 303 -286 371
-155 75 -251 87 -727 87 l-363 0 0 -1060z m871 802 c115 -38 182 -101 221
-208 31 -85 31 -255 -1 -336 -31 -79 -80 -139 -141 -172 -97 -53 -134 -58
-417 -63 l-263 -5 0 407 0 407 268 -4 c241 -4 273 -6 333 -26z"/>
<path d="M18530 17285 l0 -205 -120 0 -120 0 0 -120 0 -120 119 0 120 0 4
-517 c3 -420 6 -529 19 -574 47 -177 151 -272 334 -304 44 -8 141 -14 217 -15
l137 0 0 119 0 119 -142 4 c-150 4 -183 13 -236 61 -49 45 -52 82 -52 614 l0
493 210 0 210 0 0 120 0 120 -210 0 -210 0 0 205 0 205 -140 0 -140 0 0 -205z"/>
<path d="M28140 17285 l0 -205 -120 0 -120 0 0 -120 0 -120 119 0 120 0 4
-517 c3 -420 6 -529 19 -574 47 -177 151 -272 334 -304 44 -8 141 -14 217 -15
l137 0 0 119 0 119 -142 4 c-150 4 -183 13 -236 61 -49 45 -52 82 -52 614 l0
493 210 0 210 0 0 120 0 120 -210 0 -210 0 0 205 0 205 -140 0 -140 0 0 -205z"/>
<path d="M44200 17285 l0 -205 -120 0 -120 0 0 -120 0 -120 119 0 120 0 4
-517 c3 -420 6 -529 19 -574 47 -177 151 -272 334 -304 44 -8 141 -14 217 -15
l137 0 0 119 0 119 -142 4 c-150 4 -183 13 -236 61 -49 45 -52 82 -52 614 l0
493 210 0 210 0 0 120 0 120 -210 0 -210 0 0 205 0 205 -140 0 -140 0 0 -205z"/>
<path d="M57600 17285 l0 -205 -120 0 -120 0 0 -120 0 -120 119 0 120 0 4
-517 c3 -420 6 -529 19 -574 47 -177 151 -272 334 -304 44 -8 141 -14 217 -15
l137 0 0 119 0 119 -142 4 c-150 4 -183 13 -236 61 -49 45 -52 82 -52 614 l0
493 210 0 210 0 0 120 0 120 -210 0 -210 0 0 205 0 205 -140 0 -140 0 0 -205z"/>
<path d="M16988 17100 c-209 -26 -380 -143 -466 -320 l-42 -85 0 193 0 192
-135 0 -135 0 0 -825 0 -825 134 0 135 0 4 513 c3 450 6 519 21 571 64 219
205 338 426 361 200 21 387 -77 466 -242 49 -104 53 -165 54 -705 l0 -498 136
0 135 0 -3 568 c-4 546 -5 570 -26 645 -89 321 -363 499 -704 457z"/>
<path d="M22823 17100 c-88 -10 -190 -42 -263 -83 -70 -39 -177 -146 -218
-217 l-32 -55 0 168 0 167 -135 0 -135 0 0 -825 0 -825 135 0 135 0 0 458 c0
251 5 487 10 524 21 144 74 235 178 305 88 59 173 84 310 90 l112 6 0 148 c0
113 -3 149 -12 148 -7 -1 -45 -5 -85 -9z"/>
<path d="M24278 17100 c-209 -26 -380 -143 -466 -320 l-42 -85 0 193 0 192
-135 0 -135 0 0 -825 0 -825 134 0 135 0 4 513 c3 450 6 519 21 571 64 219
205 338 426 361 200 21 387 -77 466 -242 49 -104 53 -165 54 -705 l0 -498 136
0 135 0 -3 568 c-4 546 -5 570 -26 645 -89 321 -363 499 -704 457z"/>
<path d="M33508 17100 c-209 -26 -380 -143 -466 -320 l-42 -85 0 193 0 192
-135 0 -135 0 0 -825 0 -825 134 0 135 0 4 513 c3 450 6 519 21 571 64 219
205 338 426 361 200 21 387 -77 466 -242 49 -104 53 -165 54 -705 l0 -498 136
0 135 0 -3 568 c-4 546 -5 570 -26 645 -89 321 -363 499 -704 457z"/>
<path d="M47338 17100 c-209 -26 -380 -143 -466 -320 l-42 -85 0 193 0 192
-135 0 -135 0 0 -825 0 -825 134 0 135 0 4 513 c3 450 6 519 21 571 64 219
205 338 426 361 200 21 387 -77 466 -242 49 -104 53 -165 54 -705 l0 -498 136
0 135 0 -3 568 c-4 546 -5 570 -26 645 -89 321 -363 499 -704 457z"/>
<path d="M63283 17100 c-88 -10 -190 -42 -263 -83 -70 -39 -177 -146 -218
-217 l-32 -55 0 168 0 167 -135 0 -135 0 0 -825 0 -825 135 0 135 0 0 458 c0
251 5 487 10 524 21 144 74 235 178 305 88 59 173 84 310 90 l112 6 0 148 c0
113 -3 149 -12 148 -7 -1 -45 -5 -85 -9z"/>
<path d="M64702 17100 c-201 -28 -364 -142 -446 -313 l-35 -72 -1 183 0 182
-135 0 -135 0 0 -825 0 -825 134 0 135 0 4 513 c3 450 6 519 21 571 59 202
190 320 383 348 204 28 385 -56 463 -216 57 -115 60 -151 60 -708 l0 -508 134
0 135 0 3 513 c5 558 5 560 66 685 81 168 285 265 489 234 182 -29 296 -132
350 -318 15 -52 17 -125 21 -586 l3 -528 135 0 134 0 0 498 c0 273 -5 538 -10
587 -21 183 -76 311 -181 417 -75 75 -190 137 -294 159 -85 17 -247 15 -324
-6 -175 -45 -321 -163 -394 -317 -18 -37 -34 -67 -37 -67 -3 0 -24 40 -48 89
-108 225 -357 347 -630 310z"/>
<path d="M20431 17085 c-314 -57 -533 -265 -614 -583 -31 -124 -30 -389 2
-507 104 -384 417 -603 831 -581 183 9 321 55 457 152 111 79 206 215 247 353
25 86 34 81 -128 81 l-144 0 -6 -32 c-21 -110 -118 -226 -236 -282 -165 -79
-382 -71 -537 20 -141 82 -242 267 -243 442 l0 52 659 0 658 0 6 73 c19 216
-53 435 -191 587 -170 188 -472 277 -761 225z m313 -225 c99 -25 167 -62 231
-125 88 -88 135 -207 135 -342 l0 -63 -525 0 -525 0 0 43 c1 117 55 250 141
342 133 141 341 197 543 145z"/>
<path d="M26264 17090 c-71 -13 -186 -56 -247 -92 -166 -97 -281 -263 -338
-483 -20 -78 -23 -113 -23 -265 0 -156 3 -186 26 -271 74 -272 230 -445 482
-532 85 -29 100 -31 236 -32 125 0 156 3 220 23 185 58 307 163 396 340 l33
67 1 -207 0 -208 135 0 135 0 0 825 0 825 -135 0 -135 0 0 -207 -1 -208 -33
67 c-88 176 -211 282 -391 338 -80 25 -275 35 -361 20z m402 -259 c184 -62
308 -200 361 -401 22 -86 22 -261 -1 -354 -50 -207 -201 -360 -406 -412 -132
-33 -320 -7 -437 62 -112 65 -208 206 -238 349 -20 93 -19 268 1 358 47 213
196 366 399 411 91 20 241 14 321 -13z"/>
<path d="M31093 17091 c-327 -52 -567 -267 -655 -586 -18 -68 -21 -106 -21
-250 0 -201 15 -273 90 -425 39 -80 60 -109 137 -185 104 -104 193 -156 341
-201 82 -25 105 -27 250 -27 186 0 266 16 400 82 194 96 323 253 391 476 26
84 28 103 28 275 1 164 -2 194 -22 265 -83 288 -277 482 -557 556 -89 23 -294
34 -382 20z m269 -242 c148 -31 291 -139 355 -269 108 -221 93 -519 -36 -709
-52 -76 -109 -124 -196 -166 -165 -78 -354 -74 -516 11 -180 95 -279 286 -279
539 0 191 47 327 152 441 65 69 161 126 254 148 72 18 195 20 266 5z"/>
<path d="M35494 17090 c-71 -13 -186 -56 -247 -92 -166 -97 -281 -263 -338
-483 -20 -78 -23 -113 -23 -265 0 -156 3 -186 26 -271 74 -272 230 -445 482
-532 85 -29 100 -31 236 -32 125 0 156 3 220 23 185 58 307 163 396 340 l33
67 1 -207 0 -208 135 0 135 0 0 825 0 825 -135 0 -135 0 0 -207 -1 -208 -33
67 c-88 176 -211 282 -391 338 -80 25 -275 35 -361 20z m402 -259 c184 -62
308 -200 361 -401 22 -86 22 -261 -1 -354 -50 -207 -201 -360 -406 -412 -132
-33 -320 -7 -437 62 -112 65 -208 206 -238 349 -20 93 -19 268 1 358 47 213
196 366 399 411 91 20 241 14 321 -13z"/>
<path d="M42334 17090 c-71 -13 -186 -56 -247 -92 -166 -97 -281 -263 -338
-483 -20 -78 -23 -113 -23 -265 0 -156 3 -186 26 -271 74 -272 230 -445 482
-532 85 -29 100 -31 236 -32 125 0 156 3 220 23 185 58 307 163 396 340 l33
67 1 -207 0 -208 135 0 135 0 0 825 0 825 -135 0 -135 0 0 -207 -1 -208 -33
67 c-88 176 -211 282 -391 338 -80 25 -275 35 -361 20z m402 -259 c184 -62
308 -200 361 -401 22 -86 22 -261 -1 -354 -50 -207 -201 -360 -406 -412 -132
-33 -320 -7 -437 62 -112 65 -208 206 -238 349 -20 93 -19 268 1 358 47 213
196 366 399 411 91 20 241 14 321 -13z"/>
<path d="M49324 17090 c-71 -13 -186 -56 -247 -92 -166 -97 -281 -263 -338
-483 -20 -78 -23 -113 -23 -265 0 -156 3 -186 26 -271 74 -272 230 -445 482
-532 85 -29 100 -31 236 -32 125 0 156 3 220 23 184 58 305 161 396 340 l35
67 -4 -280 c-4 -302 -10 -343 -63 -447 -35 -69 -135 -168 -204 -201 -85 -41
-189 -60 -295 -53 -218 13 -364 103 -446 272 l-41 84 -130 0 -130 0 7 -37 c22
-119 125 -289 225 -372 156 -130 329 -185 575 -184 166 1 253 20 384 84 67 33
102 59 165 123 45 45 96 107 115 138 44 77 87 205 100 301 7 50 11 388 11 943
l0 864 -135 0 -135 0 0 -207 -1 -208 -33 67 c-88 176 -211 282 -391 338 -80
25 -275 35 -361 20z m402 -259 c184 -62 308 -200 361 -401 22 -86 22 -261 -1
-354 -50 -207 -201 -360 -406 -412 -132 -33 -320 -7 -437 62 -112 65 -208 206
-238 349 -20 93 -19 268 1 358 47 213 196 366 399 411 91 20 241 14 321 -13z"/>
<path d="M55724 17090 c-71 -13 -186 -56 -247 -92 -166 -97 -281 -263 -338
-483 -20 -78 -23 -113 -23 -265 0 -156 3 -186 26 -271 74 -272 230 -445 482
-532 85 -29 100 -31 236 -32 125 0 156 3 220 23 185 58 307 163 396 340 l33
67 1 -207 0 -208 135 0 135 0 0 825 0 825 -135 0 -135 0 0 -207 -1 -208 -33
67 c-88 176 -211 282 -391 338 -80 25 -275 35 -361 20z m402 -259 c184 -62
308 -200 361 -401 22 -86 22 -261 -1 -354 -50 -207 -201 -360 -406 -412 -132
-33 -320 -7 -437 62 -112 65 -208 206 -238 349 -20 93 -19 268 1 358 47 213
196 366 399 411 91 20 241 14 321 -13z"/>
<path d="M60873 17091 c-327 -52 -567 -267 -655 -586 -18 -68 -21 -106 -21
-250 0 -201 15 -273 90 -425 39 -80 60 -109 137 -185 104 -104 193 -156 341
-201 82 -25 105 -27 250 -27 186 0 266 16 400 82 194 96 323 253 391 476 26
84 28 103 28 275 1 164 -2 194 -22 265 -83 288 -277 482 -557 556 -89 23 -294
34 -382 20z m269 -242 c148 -31 291 -139 355 -269 108 -221 93 -519 -36 -709
-52 -76 -109 -124 -196 -166 -165 -78 -354 -74 -516 11 -180 95 -279 286 -279
539 0 191 47 327 152 441 65 69 161 126 254 148 72 18 195 20 266 5z"/>
<path d="M29480 16255 l0 -825 135 0 135 0 0 825 0 825 -135 0 -135 0 0 -825z"/>
<path d="M45550 16255 l0 -825 135 0 135 0 0 825 0 825 -135 0 -135 0 0 -825z"/>
</g>
</svg>
